<svg width="153" height="83" viewBox="0 0 153 83" fill="none" xmlns="http://www.w3.org/2000/svg">
<path d="M58.4355 2.61938V16.9051" stroke="black" stroke-width="3.5023" stroke-linecap="round"/>
<path d="M95.947 2.61938V16.9051" stroke="black" stroke-width="3.5023" stroke-linecap="round"/>
<path d="M120.74 24.4626H32.5369" stroke="black" stroke-width="3.5023"/>
<path d="M75.2836 68.2279C76.0099 68.4918 76.8058 68.4918 77.5321 68.2279C77.5776 68.2129 77.6222 68.1964 77.6661 68.1784C91.4406 62.5939 96.08 52.2244 94.5674 44.4241L94.564 44.4076C93.4069 38.6679 89.2077 34.9584 83.8658 34.9584C81.4633 34.9584 78.9175 35.7583 76.4281 37.2844C73.9098 35.6861 71.3864 34.8774 68.9093 34.8774C63.5325 34.8774 59.3471 38.6281 58.2474 44.4289C56.7368 52.3096 61.3819 62.711 75.1649 68.1833C75.2046 68.2015 75.2435 68.2145 75.2836 68.2279ZM62.711 45.2819C63.3956 41.6693 65.7714 39.4249 68.9101 39.4249C70.7989 39.4249 72.922 40.2648 75.0504 41.8534C75.4387 42.1433 75.9095 42.3014 76.3939 42.3045C76.8783 42.3077 77.3511 42.1558 77.7431 41.8711C79.8443 40.3458 82.0179 39.5058 83.8667 39.5058C86.9946 39.5058 89.3863 41.7256 90.1098 45.2995C91.2478 51.1909 87.4384 59.1418 76.404 63.7819C65.371 59.2353 61.5662 51.25 62.711 45.2819Z" fill="black"/>
<path d="M35.1175 5.10784H117.882C119.359 5.10784 120.555 6.3045 120.555 7.78065V61.3247C120.555 62.0717 120.243 62.7846 119.693 63.2907L101.376 80.1614C100.883 80.6159 100.237 80.8682 99.5657 80.8682H35.1175C33.6414 80.8682 32.4447 79.6715 32.4447 78.1954V7.78065C32.4447 6.3045 33.6414 5.10784 35.1175 5.10784Z" stroke="black" stroke-width="3.5023"/>
<path d="M118.262 62.5272H103.136C102.22 62.5272 101.477 63.27 101.477 64.1862V77.6424L118.5 63.1768C118.762 62.9547 118.605 62.5272 118.262 62.5272Z" stroke="black" stroke-width="3.5023"/>
<circle cx="58.2512" cy="15.6147" r="3.96313" fill="black"/>
<circle cx="95.8549" cy="15.6147" r="3.96313" fill="black"/>
</svg>
