<svg width="200" height="121" viewBox="0 0 200 121" fill="none" xmlns="http://www.w3.org/2000/svg">
<path d="M32.5832 118.744C31.1281 118.744 29.9614 118.512 29.0896 118.053C27.6345 117.13 26.9069 115.246 26.9069 112.39V111.13C26.9069 107.399 27.2936 103.687 28.0736 99.999C28.362 98.6168 28.6046 97.2101 28.8012 95.7851C32.5832 77.59 36.9748 59.5173 41.9694 41.5669C44.8796 30.4114 47.6457 21.1885 50.2609 13.8921C51.0868 12.6751 52.0831 12.0696 53.2433 12.0696C54.5542 12.0696 55.4718 12.4488 56.0093 13.201C56.5402 13.9533 56.809 14.6077 56.809 15.152C56.809 15.9471 56.5206 16.7238 55.9372 17.4761C54.0429 19.9531 52.129 23.6594 50.1888 28.6072C48.7796 31.9649 47.3966 35.506 46.0398 39.2367C45.7514 40.1603 45.3843 41.2061 44.9517 42.3804C39.6622 57.4379 35.6639 72.7401 32.9503 88.293C32.6553 90.0544 32.4128 91.8158 32.2227 93.5772L31.8622 96.2193L32.0064 101.883C32.0523 109.136 32.2948 112.763 32.734 112.763C33.1731 112.763 33.9924 110.916 35.205 107.228C36.516 103.289 37.2173 98.2559 37.3156 92.1339C37.3156 83.5776 35.7425 75.321 32.5898 67.3519C31.6197 64.881 30.2367 62.2573 28.4407 59.4929L27.1298 57.4807C24.1737 53.542 20.6801 50.0987 16.6555 47.1631C14.3287 45.4445 11.1038 43.3283 6.98097 40.8086L6.83677 40.6801C4.89661 39.5059 3.3825 38.2704 2.28788 36.9677C1.19326 35.6711 0.649231 34.5152 0.649231 33.5061C0.649231 31.5795 1.54721 30.0261 3.34317 28.8518C5.57173 27.176 9.89121 25.537 16.295 23.9468C29.6336 20.7604 44.4732 18.577 60.8204 17.4027C65.2316 17.0663 76.7022 16.3997 95.232 15.3906C104.107 15.0542 113.106 14.889 122.224 14.889C127.173 14.889 132.141 14.9319 137.135 15.0175C138.735 15.1031 139.534 15.7697 139.534 17.0296C139.534 18.2895 138.761 19.0418 137.208 19.1702C127.894 17.9531 118.579 17.3477 109.272 17.3477C105.536 17.3477 99.1582 17.5556 90.1391 17.9776C81.4084 18.314 72.7366 18.8094 64.1305 19.4577C55.5243 20.106 46.8788 21.2313 38.1939 22.8215C31.3051 24.2037 24.5407 26.0079 17.8944 28.228C14.7875 29.2371 11.7855 30.5765 8.87524 32.2523C8.67861 32.4174 8.50163 32.5459 8.33121 32.6315C8.16079 32.7171 8.04936 32.7783 8.00348 32.8211C7.80684 32.9923 7.64298 33.0718 7.49223 33.0718C7.49223 32.9862 7.39391 32.8211 7.20382 32.5703C7.1055 32.4847 7.0334 32.4419 6.98752 32.4419C6.8892 32.4419 6.84332 32.5703 6.84332 32.8211C6.84332 33.451 7.64298 34.3929 9.2423 35.6528C9.77322 36.032 10.1403 36.3439 10.3369 36.5947C11.5954 37.561 12.8801 38.5028 14.191 39.4264C16.1312 40.8086 18.0451 42.258 19.9394 43.7687C24.1606 47.1631 27.818 51.0467 30.9249 55.4074L32.2358 57.6703C33.8876 60.2696 35.2903 63.1196 36.457 66.2266C39.8522 75.6635 41.5499 85.3268 41.5499 95.2224C41.5499 102.017 40.6781 107.821 38.928 112.647C38.3906 114.115 37.6761 115.466 36.7781 116.702C35.8802 117.937 34.6807 118.622 33.1797 118.744H32.5963H32.5832ZM19.9984 65.407C19.9984 64.9055 20.1164 64.4223 20.3589 63.9575C20.8898 62.9912 21.932 62.508 23.4854 62.508L24.213 62.5692C25.2289 62.6548 26.6644 62.6976 28.5062 62.6976C41.7924 62.6976 58.3362 61.1258 78.1245 57.9822H78.485C79.7435 57.9822 80.3793 58.5082 80.3793 59.554C80.3793 60.4347 79.8221 60.9791 78.7079 61.187C66.5294 62.5692 57.412 63.7007 51.3556 64.5814C42.0415 65.7556 32.7536 66.9911 23.492 68.2938C21.1651 68.2938 19.9984 67.3274 19.9984 65.4009V65.407Z" fill="#453539"/>
<path d="M82.3457 92.5803C81.3756 91.3204 80.8906 89.9994 80.8906 88.6172C80.8906 87.8649 81.0348 87.0882 81.3297 86.2931C82.1556 84.073 83.2437 82.0975 84.6005 80.379L85.328 79.5594C89.5492 74.948 93.6196 72.5994 97.5523 72.5138C99.6367 72.6422 101.288 73.3517 102.501 74.6544C103.032 75.4495 103.301 76.269 103.301 77.1069C103.301 77.8225 103.104 78.5564 102.717 79.3087C101.701 81.0701 100.463 82.5807 99.0075 83.8345C96.0972 86.3481 92.4856 87.7365 88.1662 87.9872C86.5668 87.7365 85.6426 87.2717 85.4001 86.605C85.1576 85.9323 85.0396 85.4307 85.0396 85.0944C85.0396 84.4216 85.2559 83.7978 85.6951 83.2045C86.2784 82.4523 87.2485 82.0731 88.6053 82.0731H89.1887C90.4013 82.0303 91.4107 81.9079 92.2103 81.6939C93.01 81.4859 93.6524 81.2352 94.1374 80.9416C94.6224 80.648 94.9829 80.3423 95.2255 80.0303C95.468 79.7184 95.6253 79.4249 95.6974 79.1496C95.7695 78.8744 95.8088 78.6542 95.8088 78.4891L95.7367 78.2384C94.9567 78.4035 94.026 78.8438 92.9379 79.5594C91.8498 80.275 90.8667 81.1312 89.9883 82.1404L88.8216 83.333C87.4648 85.2595 86.7831 87.131 86.7831 88.9291C86.7831 90.3541 87.7532 91.2348 89.6934 91.5712C90.4209 91.6996 91.0502 91.7791 91.5877 91.8219C91.8302 91.8219 92.0006 91.8464 92.0989 91.8831L93.554 91.8219C97.4344 91.8219 101.505 91.0452 105.778 89.4918C110.97 87.6447 116.233 85.1311 121.568 81.9446C121.955 81.7795 122.316 81.6939 122.656 81.6939C123.482 81.6939 123.895 82.0914 123.895 82.8865C123.895 83.3452 123.581 83.7488 122.951 84.0791C121.064 85.1678 118.901 86.342 116.475 87.6019C110.222 90.7883 103.602 93.1797 96.615 94.7698C94.9174 95.1062 93.2198 95.2714 91.5221 95.2714C87.2551 95.2714 84.2006 94.3723 82.3522 92.5681L82.3457 92.5803Z" fill="#453539"/>
<path d="M135.53 118.426C135.72 113.729 136.257 109.057 137.129 104.403C138.341 95.9747 139.43 89.5407 140.4 85.0944C146.463 57.2911 154.341 31.9465 164.042 9.04829L164.403 8.35719C166.775 3.49498 168.309 0.975202 168.984 0.810071L171.678 0.681641C173.422 0.681641 174.516 0.975209 174.955 1.56234C175.146 1.94153 175.244 2.38189 175.244 2.8834V2.94454C175.244 4.20443 173.35 8.98102 169.568 17.2865C167.87 20.8949 166.218 24.5645 164.619 28.2953C150.795 62.0922 139.108 85.0088 129.552 97.045L128.824 97.7972C126.497 100.231 124.334 101.442 122.348 101.442C121.28 101.442 120.29 101.234 119.366 100.812C118.009 100.097 117.327 98.9899 117.327 97.4792C117.327 96.4334 117.452 95.4243 117.695 94.4579C117.74 94.3723 117.767 94.2683 117.767 94.146C120.048 87.7303 123.39 81.6511 127.808 75.9082C129.263 74.0611 130.902 72.312 132.718 70.6545C134.54 68.9971 136.801 67.8167 139.521 67.1012C142.386 67.1012 143.815 68.1103 143.815 70.1224C143.815 71.7554 142.628 72.7462 140.249 73.0765C138.02 73.578 135.425 75.4495 132.462 78.6726C128.582 83.0333 125.816 87.7915 124.17 92.9473C124.026 93.4121 123.954 93.828 123.954 94.2072C123.954 94.3723 124.026 94.4579 124.17 94.4579C124.361 94.4579 124.701 94.25 125.186 93.828C129.506 89.6752 133.163 85.2106 136.172 80.4279C145.191 66.0431 153.633 48.1844 161.492 26.8397C162.22 24.4911 163.02 22.1854 163.891 19.9225C166.022 14.8095 167.601 9.3541 168.617 3.56838L168.689 2.81611C168.591 2.81611 168.401 3.09133 168.106 3.63565V3.88641C168.932 4.38792 169.849 4.76711 170.872 5.01787C171.599 5.22581 172.301 5.48267 172.982 5.77012C173.028 5.77012 173.055 5.79459 173.055 5.83128C173.009 5.91691 172.943 5.96584 172.871 5.99031C172.799 6.01477 172.733 6.04535 172.688 6.08204L172.248 6.64472C171.18 7.73336 170.066 9.15838 168.899 10.9198C162.593 20.9806 156.701 34.1727 151.221 50.484C144.332 71.1561 140.891 90.2134 140.891 107.656C140.891 111.852 141.252 115.265 141.986 117.907C141.986 119.796 140.99 120.818 139.003 120.989C136.965 120.989 135.805 120.127 135.51 118.408L135.53 118.426Z" fill="#453539"/>
<path d="M157.796 92.5803C156.825 91.3204 156.34 89.9994 156.34 88.6172C156.34 87.8649 156.485 87.0882 156.78 86.2931C157.605 84.073 158.694 82.0975 160.05 80.379L160.778 79.5594C164.999 74.948 169.069 72.5994 173.002 72.5138C175.087 72.6422 176.738 73.3517 177.951 74.6544C178.482 75.4495 178.751 76.269 178.751 77.1069C178.751 77.8225 178.554 78.5564 178.167 79.3087C177.151 81.0701 175.912 82.5807 174.457 83.8345C171.547 86.3481 167.936 87.7365 163.616 87.9872C162.017 87.7365 161.093 87.2717 160.85 86.605C160.607 85.9323 160.483 85.4307 160.483 85.0944C160.483 84.4216 160.699 83.7978 161.138 83.2045C161.722 82.4523 162.692 82.0731 164.049 82.0731H164.632C165.845 82.0303 166.847 81.9079 167.654 81.6939C168.453 81.4859 169.096 81.2352 169.581 80.9416C170.066 80.648 170.426 80.3423 170.675 80.0303C170.918 79.7184 171.075 79.4249 171.147 79.1496C171.219 78.8744 171.259 78.6542 171.259 78.4891L171.187 78.2384C170.413 78.4035 169.476 78.8438 168.388 79.5594C167.3 80.275 166.317 81.1312 165.445 82.1404L164.278 83.333C162.921 85.2595 162.24 87.131 162.24 88.9291C162.24 90.3541 163.21 91.2348 165.15 91.5712C165.877 91.6996 166.507 91.7791 167.038 91.8219C167.28 91.8219 167.45 91.8464 167.549 91.8831L169.004 91.8219C172.884 91.8219 176.955 91.0452 181.228 89.4918C186.419 87.6447 191.683 85.1311 197.018 81.9446C197.405 81.7795 197.772 81.6939 198.106 81.6939C198.932 81.6939 199.345 82.0914 199.345 82.8865C199.345 83.3452 199.03 83.7488 198.401 84.0791C196.507 85.1678 194.351 86.342 191.925 87.6019C185.672 90.7883 179.046 93.1797 172.065 94.7698C170.367 95.1062 168.67 95.2714 166.972 95.2714C162.705 95.2714 159.651 94.3723 157.809 92.5681L157.796 92.5803Z" fill="#453539"/>
</svg>
