<svg width="30" height="32" viewBox="0 0 30 32" fill="none" xmlns="http://www.w3.org/2000/svg">
<path d="M14.5638 10.2631C16.2396 7.8106 18.3924 5.87795 20.5881 3.98811C21.9519 2.81385 23.4442 2.00654 25.3218 2.01877C26.7835 2.031 27.7927 2.6059 28.4899 3.91472C29.6703 6.14705 29.6214 8.40385 28.8569 10.7157C28.1658 12.8074 27.1383 14.685 25.7255 16.4219C24.0252 18.5136 22.5635 20.8009 21.0467 23.0333C19.371 25.5041 17.7747 28.03 16.0867 30.4948C15.1143 31.9137 14.8757 31.9198 13.2917 31.247C11.622 30.5376 10.2337 29.4734 9.15729 28.0117C6.08095 23.8406 3.44497 19.4248 1.90375 14.4342C1.0047 11.5291 0.350285 8.58733 0.668316 5.50487C0.808983 4.14713 1.3533 2.99733 2.47253 2.20225C4.04433 1.07691 5.77516 0.428612 7.73227 0.985166C9.21234 1.40717 10.2459 2.46523 11.0838 3.70066C12.0501 5.1318 12.6923 6.71584 13.151 8.37327C13.3712 9.16835 13.6892 9.87779 14.5699 10.2509L14.5638 10.2631Z" fill="#DC002A"/>
</svg>
