<svg width="97" height="89" viewBox="0 0 97 89" fill="none" xmlns="http://www.w3.org/2000/svg">
<g clip-path="url(#clip0_7_850)">
<path d="M68.14 19.3876C75.235 19.3876 81.9561 19.3876 88.672 19.3876C94.2358 19.3876 96.3583 21.596 96.3532 27.2356C96.338 45.256 96.3431 63.2764 96.3532 81.2969C96.3532 86.2543 94.0792 88.6092 89.1673 88.6092C68.3725 88.6092 47.5777 88.6092 26.7779 88.6092C20.3803 88.6092 13.9878 88.6193 7.59014 88.6092C3.01176 88.6041 0.636658 86.1987 0.636658 81.59C0.636658 63.231 0.636658 44.877 0.636658 26.518C0.636658 21.7829 3.00671 19.4028 7.78217 19.3927C14.675 19.3826 21.5679 19.3927 28.8549 19.3927C28.8549 16.4668 28.8498 13.7228 28.8549 10.9838C28.8751 4.3032 32.5034 0.64454 39.1335 0.634433C45.5311 0.624326 51.9338 0.609166 58.3314 0.634433C64.2893 0.664753 68.0794 4.46997 68.135 10.438C68.1603 13.2882 68.135 16.1433 68.135 19.3876H68.14ZM72.8144 85.001C72.9004 84.3239 73.0317 83.7528 73.0317 83.1818C73.0418 69.6336 73.0671 56.0854 72.9863 42.5373C72.9812 41.6175 72.3445 40.5108 71.6673 39.8135C68.6454 36.6804 68.2765 32.0565 71.4096 29.2064C73.532 27.276 73.0823 25.29 72.7841 23.0109H24.1956C23.9177 25.3607 23.4983 27.3366 25.6308 29.267C28.6881 32.0363 28.3041 36.6147 25.4691 39.7023C24.6707 40.5715 24.0188 41.9612 24.0137 43.1184C23.9126 56.2472 23.948 69.3708 23.9531 82.4996C23.9531 83.3132 24.0339 84.1268 24.0794 85.0061H72.8144V85.001ZM12.7092 84.9353C12.785 84.3441 12.8962 83.8539 12.8962 83.3587C12.9063 69.7347 12.9316 56.1107 12.8507 42.4867C12.8457 41.5721 12.1786 40.4805 11.5065 39.7781C8.5705 36.7208 8.13086 32.1778 11.1376 29.363C13.2702 27.372 13.0579 25.3709 12.593 22.8846C10.6626 22.8846 8.81812 22.8239 6.97868 22.9048C5.32116 22.9755 4.3408 23.8346 4.32059 25.6033C4.31048 26.6948 4.19931 27.7864 4.19931 28.8779C4.1892 45.1095 4.19425 61.341 4.19425 77.5725C4.19425 85.6074 4.32059 85.7186 12.7092 84.9404V84.9353ZM84.0835 85.1021C86.3424 85.1021 88.2678 85.1526 90.1881 85.0869C91.7748 85.0313 92.6288 84.1167 92.6945 82.5148C92.74 81.5091 92.8007 80.4985 92.8007 79.4928C92.8057 62.5033 92.8057 45.5137 92.8007 28.5292C92.8007 27.5236 93.0129 26.3664 92.5985 25.5477C92.078 24.5219 91.128 23.2282 90.1527 23.0109C88.3284 22.6066 86.3475 22.8947 84.3413 22.8947C84.0482 25.3405 83.6237 27.3265 85.7562 29.2468C88.7478 31.9403 88.6468 36.6551 85.6956 39.3991C84.3362 40.6625 84.0583 41.9309 84.0633 43.5884C84.0987 56.3735 84.0835 69.1535 84.0835 81.9387C84.0835 82.9291 84.0835 83.9146 84.0835 85.097V85.1021ZM61.035 19.0036C64.5168 19.5948 64.6279 19.519 64.638 16.6285C64.6431 14.3595 64.7088 12.0854 64.5774 9.82152C64.3803 6.3751 62.1366 4.18698 58.7306 4.15666C51.9186 4.10107 45.1066 4.10107 38.2997 4.15666C34.8836 4.18192 32.6247 6.35994 32.4226 9.78615C32.2861 12.0501 32.3569 14.3241 32.3619 16.5931C32.367 19.5493 32.7662 19.8071 35.7932 18.8974C35.8185 18.8216 35.869 18.7408 35.8741 18.665C35.9094 16.5678 35.9145 14.4656 35.9701 12.3684C36.0509 9.53348 37.3446 8.18422 40.1593 8.15895C45.708 8.11347 51.2566 8.11347 56.8103 8.15895C59.6352 8.17917 60.9642 9.52337 61.0299 12.3331C61.0804 14.5111 61.04 16.6942 61.04 19.0036H61.035ZM20.3803 84.9758V82.2318C20.3803 69.6993 20.3803 57.1669 20.3803 44.6395C20.3803 41.3295 20.0064 41.0768 16.661 42.0926V84.9758H20.3854H20.3803ZM80.5158 84.9758C80.5158 83.8994 80.5158 83.0706 80.5158 82.2469C80.5158 69.7145 80.5158 57.182 80.5158 44.6546C80.5158 41.3396 80.157 41.097 76.7915 42.0976V84.9808H80.5158V84.9758ZM40.033 19.3826C45.2987 19.3826 50.6654 19.4179 56.0321 19.327C56.5172 19.3169 57.3712 18.5488 57.4066 18.0838C57.5582 16.0271 57.4723 13.9552 57.4723 11.6761H45.7535C41.0504 11.6761 39.0173 14.0445 39.654 18.7812C39.6641 18.857 39.7399 18.9227 40.033 19.3876V19.3826ZM18.3488 38.1105C18.3488 38.1105 18.3488 38.1155 18.3488 38.1206C18.935 38.1206 19.5263 38.1459 20.1125 38.1206C22.523 38.0094 24.2158 36.3873 24.1855 34.2396C24.1552 32.1727 22.5432 30.5658 20.2742 30.4445C18.935 30.3737 17.5807 30.3485 16.2517 30.4647C14.1697 30.6466 12.6587 32.3597 12.6789 34.3305C12.6991 36.2963 14.2556 37.9235 16.3376 38.1054C17.0046 38.1661 17.6767 38.1155 18.3488 38.1155V38.1105ZM78.454 38.1105V38.1256C79.0402 38.1256 79.6315 38.1459 80.2177 38.1256C82.6383 38.0195 84.3312 36.4226 84.3211 34.2749C84.3059 32.1171 82.6282 30.5354 80.1874 30.4394C78.9291 30.3889 77.6657 30.3586 76.4125 30.4647C74.3254 30.6466 72.8094 32.3294 72.8144 34.3053C72.8195 36.271 74.3658 37.9134 76.4428 38.1054C77.1098 38.1661 77.7819 38.1155 78.454 38.1155V38.1105ZM16.2719 26.4169C16.5094 26.6645 16.7419 26.9121 16.9794 27.1547C18.076 26.8414 19.4303 26.801 20.1782 26.1086C20.6279 25.6892 20.4864 23.9104 19.9609 23.3748C19.4454 22.8492 17.606 22.6976 17.2523 23.1271C16.5802 23.9407 16.5599 25.29 16.2719 26.4169ZM80.7331 26.8262C80.4198 25.3456 80.4501 23.9963 79.8134 23.1372C79.495 22.7077 77.3979 22.8239 77.1149 23.299C76.5742 24.2086 76.7511 25.5477 76.6146 26.8262H80.7331Z" fill="white"/>
<path d="M70.2018 43.9626C70.1463 45.7869 68.7566 48.0457 66.3259 49.5264C62.8087 51.664 59.1652 53.6045 55.5773 55.6309C54.2988 56.3535 53.3336 56.0402 52.6413 54.7718C50.6199 51.0879 48.4267 47.4848 46.6176 43.6998C44.9045 40.122 45.9607 36.1349 48.735 34.1388C51.6811 32.0214 55.2185 32.4307 58.4729 35.0282C59.1652 35.579 60.4033 35.8165 61.3078 35.675C66.1793 34.9221 70.2675 38.1411 70.2069 43.9626H70.2018ZM55.077 51.9369C58.4982 49.9458 61.6818 48.258 64.6835 46.2922C66.4876 45.1097 67.473 43.245 66.245 41.0771C65.0625 38.9951 63.0816 38.5554 61.0299 39.5409C58.9833 40.5212 57.7048 40.1978 56.4364 38.2623C55.2185 36.4077 53.3033 35.7053 51.1657 36.8221C49.3768 37.752 48.7704 40.1372 49.8872 42.3708C51.4537 45.5039 53.2174 48.5359 55.0719 51.9369H55.077Z" fill="white"/>
<path d="M45.4553 51.9873C44.6215 53.9985 43.5552 56.7072 42.3879 59.3754C40.3463 64.0447 40.316 64.0447 35.6719 61.9576C33.6101 61.0278 31.4927 60.1738 29.5573 59.0267C26.9598 57.4854 25.9643 54.7363 26.7628 52.1237C27.5511 49.5364 29.6179 48.2174 32.7056 48.0001C33.6556 47.9344 34.6612 47.3685 35.4647 46.7924C37.5316 45.3016 39.654 44.6902 42.0443 45.8676C44.2273 46.9389 45.1167 48.8441 45.4452 51.9923L45.4553 51.9873ZM38.517 59.3703C39.5934 56.9396 40.7708 54.8576 41.3873 52.624C41.6703 51.6083 40.8516 50.2843 40.5333 49.1018C39.3963 49.5212 37.8701 49.6223 37.2132 50.4308C36.1722 51.7093 35.4243 52.2551 33.6708 51.8357C32.6702 51.5982 30.8661 52.2046 30.3557 53.0182C29.4259 54.4938 30.6589 55.7066 32.0284 56.3888C34.0498 57.3944 36.1318 58.2838 38.517 59.3703Z" fill="white"/>
<path d="M58.1394 70.6798C57.912 71.1599 57.4723 72.2211 56.9063 73.2065C56.6688 73.6159 56.1786 73.8938 55.7693 74.1869C49.7103 78.5531 47.2442 77.699 44.8843 70.4979C44.2577 68.5928 44.6771 66.9656 46.0718 65.6669C47.4868 64.353 49.1595 64.161 50.9939 64.9493C51.9489 65.3637 53.0152 65.6113 54.0512 65.7275C56.5425 66.0105 58.0989 67.5771 58.1343 70.6748L58.1394 70.6798ZM50.5593 73.4289C52.2016 72.1706 53.5256 71.1549 54.8496 70.1442C54.7435 69.8814 54.6323 69.6237 54.5262 69.3609C52.6615 69.563 50.6755 70.225 49.397 68.2441C49.3262 68.1329 48.6491 68.2037 48.543 68.3755C48.3509 68.6787 48.2094 69.2043 48.3459 69.4872C48.9321 70.6748 49.6294 71.8017 50.5643 73.4339L50.5593 73.4289Z" fill="white"/>
</g>
<defs>
<clipPath id="clip0_7_850">
<rect width="95.7267" height="88" fill="white" transform="translate(0.636658 0.619385)"/>
</clipPath>
</defs>
</svg>
