<svg width="97" height="94" viewBox="0 0 97 94" fill="none" xmlns="http://www.w3.org/2000/svg">
<path d="M37.6207 33.3366C37.9467 33.4925 38.304 33.5735 38.6658 33.5735C39.0277 33.5735 39.3849 33.4925 39.7109 33.3366C43.5159 31.6672 46.8568 29.1071 49.4476 25.8754C51.1145 26.9 52.5432 27.6619 53.2841 28.0297C53.6568 28.2188 54.0694 28.3174 54.4879 28.3174C54.9065 28.3174 55.3191 28.2188 55.6918 28.0297C75.6149 18.8609 73.2601 4.83192 64.7934 1.39034C63.1042 0.697092 61.2588 0.465486 59.4489 0.719574C57.639 0.973663 55.9307 1.70418 54.5012 2.83528C52.819 1.50151 50.7537 0.732718 48.6031 0.639786C46.4524 0.546853 44.3277 1.13458 42.5352 2.31821C40.7427 3.50184 39.3752 5.22018 38.6298 7.22542C37.8845 9.23066 37.7998 11.4192 38.388 13.4753C29.498 7.40653 15.9249 22.5127 37.6207 33.3366ZM53.4957 5.59379C53.7549 5.83198 54.0951 5.96429 54.4482 5.96429C54.8014 5.96429 55.1415 5.83198 55.4007 5.59379C56.4493 4.52658 57.7948 3.7945 59.265 3.49134C60.7352 3.18818 62.2631 3.32774 63.6529 3.89216C65.0426 4.45657 66.2311 5.42012 67.066 6.65938C67.9008 7.89864 68.344 9.35716 68.3389 10.8481C68.3389 18.9923 56.8295 24.6932 54.4218 25.7441C53.1337 25.0988 51.8797 24.3885 50.6647 23.6161C51.3789 22.2029 51.6485 20.6091 51.4385 19.0418C51.2285 17.4745 50.5486 16.0061 49.4872 14.8275C48.4257 13.6488 47.0318 12.8145 45.4865 12.4328C43.9413 12.0511 42.3161 12.1397 40.8222 12.6871C40.3728 11.0787 40.4796 9.36711 41.1255 7.82606C41.7713 6.28501 42.919 5.00351 44.3848 4.18648C45.8507 3.36945 47.5502 3.06408 49.2114 3.31921C50.8727 3.57433 52.3998 4.37522 53.5486 5.59379H53.4957ZM37.6207 16.4177C37.8725 16.66 38.2094 16.7956 38.56 16.7956C38.9107 16.7956 39.2475 16.66 39.4993 16.4177C40.2313 15.6408 41.1835 15.1029 42.2301 14.875C43.2767 14.6471 44.3682 14.7401 45.3604 15.1416C46.3526 15.5431 47.1987 16.2342 47.7868 17.1235C48.3749 18.0128 48.6772 19.0584 48.6539 20.122C48.6539 26.0068 40.1607 30.184 38.6791 30.9721C19.9466 21.5669 31.9322 10.5328 37.753 16.4177H37.6207Z" fill="black"/>
<path d="M48.5 38.828C43.9277 35.7308 38.5913 33.9307 33.0652 33.6214C27.5392 33.3122 22.0328 34.5055 17.1391 37.0729C12.2453 39.6403 8.14944 43.4846 5.29256 48.1918C2.43568 52.899 0.925964 58.2909 0.925964 63.7868C0.925964 69.2827 2.43568 74.6745 5.29256 79.3818C8.14944 84.089 12.2453 87.9333 17.1391 90.5007C22.0328 93.0681 27.5392 94.2614 33.0652 93.9521C38.5913 93.6429 43.9277 91.8427 48.5 88.7455C53.0723 91.8427 58.4087 93.6429 63.9348 93.9521C69.4608 94.2614 74.9672 93.0681 79.861 90.5007C84.7547 87.9333 88.8506 84.089 91.7074 79.3818C94.5643 74.6745 96.074 69.2827 96.074 63.7868C96.074 58.2909 94.5643 52.899 91.7074 48.1918C88.8506 43.4846 84.7547 39.6403 79.861 37.0729C74.9672 34.5055 69.4608 33.3122 63.9348 33.6214C58.4087 33.9307 53.0723 35.7308 48.5 38.828ZM3.52084 63.7342C3.53991 58.7927 4.89288 53.9465 7.43886 49.7006C9.98483 45.4546 13.6307 41.964 17.9967 39.5925C22.3628 37.2209 27.2893 36.0551 32.2632 36.2163C37.2372 36.3776 42.0766 37.8601 46.2775 40.5095C44.8652 41.6668 43.5632 42.9508 42.3881 44.3452C37.6105 41.6376 31.999 40.7626 26.6155 41.8859C21.232 43.0092 16.4498 46.0528 13.1738 50.4409C9.89767 54.829 8.35491 60.2573 8.83736 65.6986C9.31981 71.14 11.794 76.2171 15.7918 79.9693C19.7897 83.7215 25.0339 85.8886 30.5322 86.0606C36.0305 86.2326 41.4017 84.3975 45.6294 80.9026C49.8572 77.4077 52.6483 72.4953 53.4747 67.0949C54.301 61.6945 53.1054 56.1806 50.114 51.5964C51.2286 50.1786 52.5378 48.9228 54.0033 47.8657C56.5244 51.4145 58.166 55.5042 58.7946 59.802C59.4232 64.0998 59.021 68.4843 57.6207 72.5985C56.2205 76.7128 53.8618 80.4407 50.7366 83.4789C47.6113 86.517 43.8078 88.7795 39.6356 90.0823C35.4634 91.3851 31.0404 91.6913 26.7265 90.9761C22.4126 90.2609 18.3297 88.5444 14.8101 85.9664C11.2905 83.3883 8.43355 80.0216 6.47183 76.1401C4.51011 72.2586 3.49902 67.972 3.52084 63.6292V63.7342ZM40.7742 46.4733C37.1898 51.5353 35.2663 57.5725 35.2663 63.7605C35.2663 69.9485 37.1898 75.9857 40.7742 81.0477C37.7558 82.6776 34.3626 83.5002 30.9274 83.4349C27.4923 83.3696 24.1332 82.4186 21.1799 80.6752C18.2266 78.9318 15.7805 76.456 14.0816 73.4906C12.3828 70.5252 11.4895 67.1721 11.4895 63.7605C11.4895 60.3489 12.3828 56.9958 14.0816 54.0305C15.7805 51.0651 18.2266 48.5892 21.1799 46.8458C24.1332 45.1024 27.4923 44.1514 30.9274 44.0861C34.3626 44.0208 37.7558 44.8434 40.7742 46.4733ZM48.4735 53.9872C50.2094 56.9511 51.1238 60.3187 51.1238 63.7474C51.1238 67.1761 50.2094 70.5436 48.4735 73.5076C46.7377 70.5436 45.8233 67.1761 45.8233 63.7474C45.8233 60.3187 46.7377 56.9511 48.4735 53.9872ZM56.2258 46.4207C59.2442 44.7909 62.6374 43.9683 66.0726 44.0336C69.5078 44.0989 72.8668 45.0499 75.8201 46.7933C78.7734 48.5367 81.2195 51.0125 82.9184 53.9779C84.6172 56.9433 85.5105 60.2963 85.5105 63.708C85.5105 67.1196 84.6172 70.4726 82.9184 73.438C81.2195 76.4034 78.7734 78.8793 75.8201 80.6227C72.8668 82.366 69.5078 83.3171 66.0726 83.3824C62.6374 83.4477 59.2442 82.625 56.2258 80.9952C59.8102 75.9332 61.7338 69.896 61.7338 63.708C61.7338 57.5199 59.8102 51.4827 56.2258 46.4207ZM50.7225 86.959C52.1411 85.8086 53.4437 84.524 54.6119 83.1233C59.3941 85.8247 65.0076 86.6917 70.3902 85.5602C75.7728 84.4287 80.551 81.3773 83.8204 76.9833C87.0899 72.5894 88.6238 67.1577 88.132 61.7164C87.6401 56.2751 85.1565 51.2015 81.1513 47.456C77.146 43.7104 71.8969 41.5527 66.3975 41.3911C60.898 41.2296 55.5297 43.0754 51.3084 46.5793C47.0872 50.0832 44.3059 55.0021 43.4909 60.4051C42.676 65.808 43.8839 71.3201 46.886 75.8983C45.7644 77.3099 44.4562 78.5648 42.9967 79.629C39.0157 74.0287 37.2772 67.1573 38.1199 60.3537C38.9627 53.5501 42.3262 47.3017 47.5552 42.8262C52.7841 38.3507 59.5039 35.9686 66.405 36.1442C73.3062 36.3198 79.8942 39.0404 84.8855 43.776C89.8768 48.5115 92.9137 54.9227 93.4044 61.7603C93.8951 68.5978 91.8045 75.3718 87.54 80.7623C83.2754 86.1528 77.1424 89.7737 70.3361 90.9192C63.5298 92.0648 56.5378 90.653 50.7225 86.959Z" fill="black"/>
</svg>
