<svg width="200" height="143" viewBox="0 0 200 143" fill="none" xmlns="http://www.w3.org/2000/svg">
<path d="M12.4121 102.564C9.98735 102.08 8.17018 100.821 6.95491 98.8023C5.44156 96.3314 4.43267 94.1419 3.94541 92.2276C1.74991 85.0352 0.649292 77.2251 0.649292 68.7973L0.706616 66.1001C1.234 55.7641 2.21997 45.4465 3.66453 35.1411L4.00847 32.499C4.6161 28.8661 4.91992 25.1965 4.91992 21.4902L4.86259 19.1845C4.86259 17.2763 5.80844 16.3222 7.70586 16.3222C9.60328 16.3222 10.5491 17.2763 10.5491 19.1845C9.90709 22.7073 9.22494 26.2056 8.50266 29.6917C5.81417 42.5414 4.31802 54.7305 4.0142 66.2653C4.0142 74.5463 4.94285 81.7754 6.80014 87.9525C7.02943 88.662 7.27593 89.3592 7.53962 90.032C7.65427 90.405 7.77464 90.7414 7.90649 91.0411C8.03833 91.3408 8.18164 91.6588 8.33069 91.9952C9.88416 96.0012 11.7415 98.0072 13.9026 98.0072C14.1319 97.9705 14.3554 97.8971 14.5847 97.7809C14.814 97.6708 15.0376 97.5913 15.2669 97.5546C17.9955 96.2091 20.5693 94.1113 22.9941 91.2613C25.0005 88.8638 26.8406 86.4664 28.5087 84.0689C28.8125 83.5857 29.1335 83.1331 29.4774 82.7173C33.9888 75.7512 38.0416 68.5404 41.6416 61.085C49.7472 44.3395 57.0789 27.2637 63.6367 9.84538C64.0552 9.05642 64.4507 8.65888 64.8291 8.63442C65.2074 8.61607 65.4367 8.60384 65.5112 8.60384C66.1189 8.60384 66.629 8.83013 67.0475 9.27659C67.3112 9.57628 67.443 9.94935 67.443 10.4019C67.443 10.6649 67.3857 10.9646 67.2711 11.301C63.2928 18.7564 59.5782 26.5053 56.133 34.56L53.3471 40.6821C46.9039 55.4767 39.7843 69.9899 31.9768 84.2218L31.5812 84.8945C26.8807 93.0961 22.3922 98.5454 18.1101 101.243C17.6171 101.506 16.7057 101.879 15.3815 102.368C14.2465 102.478 13.4669 102.539 13.0484 102.539H12.4236L12.4121 102.564Z" fill="#453539"/>
<path d="M57.4859 86.0443C55.6286 85.2982 54.5394 84.2279 54.2184 82.8396C53.8974 81.4574 53.7369 80.2342 53.7369 79.1883C53.7369 78.5156 53.7942 77.8367 53.9089 77.1639L54.0808 76.2649C54.4592 74.1304 54.9235 72.0693 55.4738 70.0878C56.0241 68.1001 56.4655 66.1185 56.8094 64.1308C57.1878 63.085 57.6349 62.5101 58.1451 62.4183C58.6553 62.3266 58.9877 62.2777 59.1425 62.2777C59.7845 62.2777 60.3463 62.4917 60.8164 62.926C61.2922 63.3541 61.5272 63.8923 61.5272 64.5283C61.5272 64.828 61.4871 65.1277 61.4125 65.4274C59.1368 69.5863 57.7553 73.4821 57.2623 77.115C57.2222 77.378 57.1935 77.641 57.1763 77.904C57.1591 78.167 57.1362 78.43 57.119 78.6929C57.1018 78.9559 57.0903 79.2373 57.0903 79.537L57.1476 81.225C57.3368 82.7968 58.2081 83.5857 59.7616 83.5857C60.6329 83.5857 61.5788 83.4756 62.6049 83.2493L63.0004 83.1943C67.357 81.9589 72.3213 79.2984 77.8931 75.2191C78.6097 74.6931 79.2919 74.1488 79.9396 73.5922C80.8511 72.8033 81.5332 72.4118 81.9861 72.4118C82.1752 72.4118 82.3472 72.4485 82.4962 72.5219C83.0638 72.8216 83.3504 73.2314 83.3504 73.7573C83.3504 74.2038 83.1497 74.5891 82.7542 74.9072C82.3587 75.2252 81.9689 75.5188 81.5905 75.7756C76.5116 79.7082 70.6761 82.9864 64.0838 85.6101L62.8342 85.8915C61.5444 86.2645 60.5412 86.4541 59.8247 86.4541C59.1081 86.4541 58.3285 86.3257 57.4973 86.0627L57.4859 86.0443ZM60.5527 56.0944C60.0196 55.6112 59.7559 54.9874 59.7559 54.2413C59.7559 53.9416 59.8017 53.593 59.8992 53.2016C59.9909 52.8101 60.0425 52.59 60.0425 52.5533C60.4954 51.3912 61.0113 50.7735 61.5788 50.7001C62.1463 50.6267 62.4902 50.59 62.5991 50.59C63.3959 50.59 64.0781 50.8714 64.6456 51.434C65.1386 51.8866 65.3851 52.4676 65.3851 53.1771C65.3851 53.7031 65.2876 54.1495 65.0985 54.5287L64.9838 54.8101C64.5654 55.9721 64.0724 56.602 63.5049 56.6938C62.9374 56.7855 62.5762 56.8344 62.4272 56.8344C61.7049 56.8344 61.0801 56.5898 60.5527 56.1066V56.0944Z" fill="#453539"/>
<path d="M80.9027 82.6133C79.8766 81.488 79.3664 80.2709 79.3664 78.9621C79.3664 77.2374 80.0887 75.2802 81.5275 73.0907C82.9663 70.9012 84.0841 69.4089 84.8809 68.6261C88.8191 64.0207 92.2872 61.6783 95.2795 61.6049C96.9075 61.7945 98.0998 62.5223 98.8622 63.7944C99.0915 64.3204 99.2004 64.8403 99.2004 65.3662C99.2004 66.1919 98.9711 67.201 98.5183 68.3998C97.9508 70.2346 97.2858 71.1703 96.5291 71.207H95.7323C94.8209 71.207 94.0814 70.8523 93.5139 70.1367C93.1356 69.7269 92.9464 69.2377 92.9464 68.675C92.9464 68.2652 93.0611 67.7943 93.2846 67.2683C93.663 66.7056 93.8521 66.1613 93.8521 65.6415C93.8521 65.4947 93.8349 65.3968 93.7948 65.3601L93.8521 65.5314C93.9668 65.9411 94.1158 66.2408 94.305 66.4304C94.454 66.4304 94.5343 66.5038 94.5343 66.6567C94.5343 66.7301 94.4196 66.7668 94.1961 66.7668L93.7432 66.9381C91.6566 67.9472 89.8566 69.2621 88.3433 70.8706C86.979 72.2223 85.821 73.6962 84.8752 75.3108C84.1185 76.5463 83.7402 77.5554 83.7402 78.3443C83.7402 79.7327 84.4797 80.4238 85.9586 80.4238C87.0191 80.5767 87.8331 80.6501 88.4006 80.6501C94.4254 80.3871 100.977 78.4422 108.068 74.8093C109.203 74.2466 110.321 73.6473 111.422 73.0112C112.712 72.2223 113.526 71.8308 113.864 71.8308C114.093 71.8308 114.282 71.9042 114.431 72.0571C114.81 72.3201 115.016 72.6748 115.056 73.1213C115.056 73.5739 114.81 73.947 114.317 74.2466C106.698 78.4422 99.6705 81.4941 93.233 83.4023C90.8082 84.1484 88.7216 84.5276 86.979 84.5276C84.3249 84.5276 82.3014 83.8915 80.8969 82.6194L80.9027 82.6133Z" fill="#453539"/>
<path d="M113.354 79.9161L112.729 79.6899C110.568 78.9009 109.358 77.9651 109.089 76.8826C109.014 76.4728 108.974 76.0937 108.974 75.7573C108.974 74.7481 109.295 74.0326 109.943 73.6228C110.814 73.0968 111.858 72.7421 113.067 72.5525L113.463 72.4975C118.805 71.0357 123.615 67.9472 127.897 63.2256C129.112 61.9168 130.075 60.4368 130.797 58.7854C131.439 57.7763 132.202 57.2687 133.073 57.2687C134.134 57.2687 134.884 57.5684 135.32 58.1677C135.756 58.7671 135.974 59.3114 135.974 59.7946C135.974 60.2777 135.825 60.8037 135.521 61.3664C129.571 68.9319 122.732 74.1366 115.005 76.9866C114.552 77.0967 114.093 77.2496 113.64 77.4331L113.411 77.4881C112.993 77.641 112.786 77.7511 112.786 77.8245C112.786 77.8612 112.878 77.8795 113.073 77.8795L113.187 77.8245C113.64 77.115 114.001 76.3628 114.265 75.5799L114.322 75.5249L114.15 75.1885C114.15 75.1518 114.168 75.1334 114.208 75.1334C114.512 75.2068 114.758 75.3292 114.947 75.5004C115.136 75.6717 115.555 75.9041 116.197 76.2037C116.69 76.4667 117.2 76.693 117.733 76.8765C121.637 78.1119 125.592 78.7296 129.611 78.7296C135.142 78.7296 140.789 77.5126 146.55 75.0784C150.224 73.5066 153.463 71.9715 156.272 70.4731C156.65 70.2835 157.011 70.1917 157.35 70.1917C157.579 70.1917 157.785 70.2468 157.975 70.363C158.468 70.626 158.714 70.9624 158.714 71.3721C158.714 71.7819 158.41 72.1611 157.803 72.4975C149.582 76.6563 142.875 79.2006 137.682 80.1363C132.488 81.0721 128.229 81.543 124.893 81.543C120.462 81.543 116.615 80.9987 113.354 79.9161ZM109.146 111.102L109.656 107.958C111.17 96.6433 112.78 85.3349 114.489 74.0203C116.839 58.7732 119.889 43.6606 123.638 28.6826C124.509 24.6032 126.08 19.264 128.355 12.671C129.53 9.18486 130.723 6.46937 131.938 4.52449C133.148 2.42671 134.437 1.20963 135.802 0.873251L136.822 0.818207C138.072 0.818207 138.96 1.23409 139.493 2.05363C140.135 3.02607 140.462 4.20646 140.462 5.59479V5.82108C139.854 10.5793 138.301 16.4996 135.802 23.5758C134.965 26.0099 133.188 30.9333 130.459 38.352C127.427 46.4434 124.452 54.5348 121.534 62.6263C118.616 71.0541 116.552 76.7848 115.337 79.8183C114.695 80.7173 113.956 81.1638 113.119 81.1638C112.058 81.1638 111.301 80.7724 110.843 79.9834C110.505 79.3841 110.333 78.8948 110.333 78.5217C110.333 77.9957 110.539 77.4147 110.958 76.7786L111.468 76.1609C113.061 73.6534 114.196 71.574 114.878 69.9226C121.849 55.7641 127.725 41.0797 132.5 25.8754C133.824 21.4902 134.833 17.0561 135.509 12.5609C135.773 10.7261 136.037 9.01973 136.306 7.44793L136.421 6.54888C136.421 6.43879 136.404 6.37763 136.363 6.37763C136.289 6.37763 136.134 6.54888 135.911 6.88526C133.635 10.0289 131.76 13.3865 130.281 16.9399C128.539 21.2089 127.043 25.331 125.793 29.3003C121.929 41.5139 119.012 53.9294 117.04 66.5527C114.844 80.2648 113.554 94.1603 113.176 108.239V111.273C112.947 112.545 112.265 113.181 111.129 113.181C109.805 113.181 109.14 112.49 109.14 111.102H109.146Z" fill="#453539"/>
<path d="M154.048 142.397C151.967 140.935 150.769 139.045 150.465 136.721C150.35 135.822 150.293 134.942 150.293 134.079C150.293 131.792 150.614 129.584 151.262 127.45C152.89 121.083 155.355 115.071 158.651 109.414L159.958 107.053C165.26 99.1142 171.228 91.6099 177.86 84.5521C184.493 77.4942 191.234 72.2222 198.096 68.7361C198.325 68.626 198.531 68.5649 198.72 68.5649C199.139 68.5649 199.345 68.7912 199.345 69.2376C199.345 69.4639 199.231 69.6291 199.007 69.7453C191.085 74.0937 183.776 79.7999 177.069 86.8822C169.302 95.0104 163.541 102.986 159.792 110.814C157.441 115.456 155.641 120.104 154.392 124.746C153.595 127.853 153.199 130.404 153.199 132.385C153.199 133.994 153.389 135.547 153.767 137.046C154.524 138.507 155.395 139.235 156.381 139.235C156.908 139.235 157.459 139.027 158.032 138.617C160.835 136.672 163.581 133.131 166.275 128C173.097 114.924 177.413 93.934 179.236 65.0176C179.351 63.8923 179.408 62.0942 179.408 59.6233C179.408 59.5132 179.379 59.3542 179.322 59.1463C179.265 58.9445 179.236 58.7793 179.236 58.6692C179.236 58.6325 179.276 58.6142 179.351 58.6142C179.803 58.8038 180.233 59.1096 180.629 59.5438C181.024 59.9781 181.472 60.2655 181.965 60.4123C182.383 60.0392 182.63 59.8496 182.704 59.8496C182.744 59.8496 182.761 59.868 182.761 59.9047C182.761 60.4306 179.861 64.3082 174.065 71.5373C172.552 73.4454 171.6 74.6625 171.222 75.1885C168.23 79.3107 165.444 82.1913 162.864 83.8426C161.993 84.4053 161.082 84.7233 160.136 84.7967C158.278 84.6071 156.897 83.7876 155.985 82.3258C155.378 81.1271 155.074 79.7999 155.074 78.3382C155.074 76.7297 155.303 74.7604 155.756 72.4363C155.945 71.574 156.077 70.7483 156.152 69.9655C156.868 65.5069 157.894 61.1279 159.218 56.8161C159.861 55.807 160.64 55.2993 161.546 55.2993C162.572 55.2993 163.3 55.6051 163.736 56.229C164.171 56.8467 164.389 57.3788 164.389 57.8314C164.389 58.3206 164.234 58.8649 163.936 59.4582C162.423 61.9658 161.167 65.6782 160.187 70.5832C160.147 70.6199 160.13 70.6749 160.13 70.7544L159.843 72.7176C159.539 74.3261 159.39 75.6961 159.39 76.8215C159.39 77.7939 159.562 78.7296 159.901 79.6287C160.13 79.7816 160.376 79.855 160.64 79.855C161.66 79.855 163.632 78.2098 166.55 74.9133C171.4 69.4823 175.567 63.507 179.053 56.9935C179.735 55.9476 180.348 55.3727 180.898 55.281C181.449 55.1892 181.816 55.1403 182.005 55.1403C182.687 55.1403 183.283 55.3666 183.793 55.8131C184.303 56.2595 184.561 56.9017 184.561 57.7213C184.561 58.9567 184.24 60.8282 183.593 63.3418L183.14 65.5314C181.924 72.0877 180.789 78.7174 179.729 85.4205C178.972 90.3255 178.175 95.1755 177.344 99.9704C175.298 111.358 172.477 121.077 168.878 129.131C167.628 131.718 165.868 134.471 163.592 137.388C160.824 140.984 158.341 142.782 156.146 142.782C155.429 142.782 154.724 142.654 154.042 142.391L154.048 142.397Z" fill="#453539"/>
</svg>
